<svg width="1490" height="2048" version="1.1" xmlns="http://www.w3.org/2000/svg" desc="Created with imagetracer.js version 1.2.6" ><path fill="rgb(255,255,255)" stroke="rgb(255,255,255)" stroke-width="1" opacity="0.4980392156862745" d="M 734.5 0 L 788.5 1 L 789.5 2 L 821 3 L 821.5 5 L 832.5 5 L 833.5 6 L 843.5 6 L 845.5 8 L 871 10 Q 869.9 13.5 877.5 12 L 878.5 13 L 886 13 Q 884.9 16.5 892.5 15 L 903.5 17 L 906.5 19 L 918 20 Q 916.6 23.7 922.5 22 Q 923.8 24.3 928.5 23 L 934.5 26 L 945 27 Q 943.7 30.3 948.5 29 L 955 30 Q 953.7 33.3 958.5 32 L 968 34 Q 966.7 37.3 971.5 36 L 977 37 Q 975.7 40.3 980.5 39 L 986.5 42 L 997 44 Q 995.7 47.3 1000.5 46 L 1005 47 Q 1003.8 50 1007.5 49 L 1019.5 54 L 1023 54 Q 1021.8 57 1025.5 56 L 1033.5 60 L 1040 61 Q 1038.9 63.7 1041.5 63 L 1055 68 Q 1053.8 71 1057.5 70 L 1070.5 77 L 1076 78 Q 1074.9 80.7 1077.5 80 L 1089 85 Q 1087.8 88 1091.5 87 L 1095 88 Q 1093.9 90.7 1096.5 90 L 1102 92 Q 1100.8 95 1104.5 94 L 1108 95 Q 1106.9 97.7 1109.5 97 L 1117.5 102 L 1120 102 Q 1118.9 104.7 1121.5 104 L 1138.5 115 L 1143 116 Q 1141.9 118.7 1144.5 118 L 1147 119 Q 1145.9 121.7 1148.5 121 L 1158 126 Q 1156.9 128.7 1159.5 128 L 1168 133 Q 1166.9 135.7 1169.5 135 L 1178 140 Q 1176.9 142.7 1179.5 142 L 1182 143 Q 1180.9 145.7 1183.5 145 L 1189.5 150 L 1192 150 Q 1190.9 152.7 1193.5 152 L 1195 155 L 1201 157 Q 1199.9 159.7 1202.5 159 L 1205 160 L 1206.5 163 L 1218.5 173 L 1222 174 L 1223.5 177 L 1226.5 179 L 1230 181 Q 1228.9 183.7 1231.5 183 L 1233 186 L 1238 188.5 Q 1237.3 190.8 1239.5 190 L 1245 194 L 1247.5 198 L 1250.5 200 L 1253.5 204 L 1256 205.5 Q 1255.3 207.8 1257.5 207 L 1260 208 L 1261.5 211 Q 1263.8 210.3 1263 212.5 L 1267 215.5 Q 1266.3 217.8 1268.5 217 L 1271.5 221 L 1274 222.5 Q 1273.3 224.8 1275.5 224 L 1278.5 228 Q 1281.1 227.3 1280 230 L 1282 230 L 1282 231.5 L 1283 234 L 1286 235.5 L 1287.5 238 L 1290 239.5 L 1291.5 242 Q 1293.8 241.3 1293 243.5 L 1296 245 L 1300 252 L 1303 253.5 L 1311 265 L 1314 266.5 L 1315.5 269 Q 1318.1 268.2 1317 271.5 L 1320 273 L 1325 282 L 1328 283.5 L 1330 286.5 L 1332.5 290 Q 1335.1 289.2 1334 292.5 L 1335 295 L 1338 296.5 L 1339.5 300 Q 1341.8 299.3 1341 301.5 L 1349 313 Q 1352 311.8 1351 315.5 L 1354 317 L 1356 323 Q 1359 321.8 1358 325.5 Q 1364.2 330.2 1366 338 Q 1368.7 336.9 1368 339.5 L 1369 343 L 1372 344.5 L 1372 346.5 L 1383 362.5 L 1383 365 Q 1386 363.8 1385 367.5 L 1386 370 Q 1388.7 368.9 1388 371.5 L 1393 379.5 L 1393 382 Q 1396 380.8 1395 384.5 L 1396 388 Q 1398.7 386.9 1398 389.5 L 1400 395 Q 1403 393.8 1402 397.5 L 1403 401 Q 1405.7 399.9 1405 402.5 L 1410 414 Q 1413 412.8 1412 416.5 L 1417 428 Q 1420.3 426.7 1419 431.5 L 1423 437.5 L 1427 450 Q 1430 448.8 1429 452.5 L 1432 458.5 L 1431.5 460 Q 1434.5 459.1 1433 463.5 L 1434 467 Q 1437 465.8 1436 469.5 L 1441 483.5 L 1443 485.5 L 1444 491.5 L 1446 493.5 L 1447 500.5 L 1450 505.5 L 1451 511.5 L 1453 513.5 L 1454 521.5 L 1457 526.5 L 1458 535 Q 1462 533.6 1460 540.5 L 1461 545 Q 1464.7 543.6 1463 549.5 L 1465 559.5 L 1467 561.5 L 1468 572 Q 1471.7 570.6 1470 576.5 L 1473 588.5 L 1472.5 590 Q 1475.5 589.5 1474 596.5 Q 1476.3 597.8 1475 602.5 L 1477 604.5 L 1478 618.5 L 1480 620.5 L 1482 644.5 L 1484 646.5 L 1485 669 L 1487 669.5 L 1487 682.5 L 1488 683.5 L 1488 701.5 L 1489 702.5 L 1490 764.5 L 1489 765.5 L 1489 800.5 L 1488 801.5 L 1487 833.5 L 1485 835.5 L 1484 857.5 L 1482 859.5 L 1480 884.5 L 1478 886.5 L 1477 901 Q 1473.5 899.9 1475 907.5 L 1474 908.5 L 1473 920.5 L 1471 922.5 L 1470 934.5 L 1468 936.5 L 1467 948 Q 1463.3 946.6 1465 952.5 L 1463 963.5 L 1461 965.5 L 1460 976 Q 1456.7 974.7 1458 979.5 L 1456 989.5 L 1453 996.5 L 1453 1001 Q 1449.3 999.6 1451 1005.5 L 1450 1010 Q 1446 1008.6 1448 1015.5 L 1446 1024 Q 1442.7 1022.7 1444 1027.5 L 1441 1033.5 L 1439 1044.5 L 1437 1046.5 L 1436 1054 Q 1432.7 1052.7 1434 1057.5 L 1433 1062 L 1431 1062.5 L 1432 1064.5 Q 1428.3 1067.9 1429 1074 Q 1425.7 1072.7 1427 1077.5 L 1426 1082 Q 1422.7 1080.7 1424 1085.5 L 1422 1093 Q 1418.7 1091.7 1420 1096.5 L 1419 1100 Q 1415.3 1098.7 1417 1104.5 L 1412 1117.5 L 1410 1119.5 L 1409 1126 Q 1406 1124.8 1407 1128.5 L 1405 1136 Q 1401.7 1134.7 1403 1139.5 L 1402 1143 Q 1399 1141.8 1400 1145.5 L 1391 1168 Q 1387.7 1166.7 1389 1171.5 L 1388 1175 Q 1385 1173.8 1386 1177.5 L 1379 1191.5 L 1378 1196.5 L 1372 1206.5 L 1371 1212 Q 1368 1210.8 1369 1214.5 L 1368 1218 Q 1365 1216.8 1366 1220.5 L 1355 1241.5 L 1354 1247 Q 1351.3 1245.9 1352 1248.5 L 1340 1271.5 L 1340 1274 Q 1337 1272.8 1338 1276.5 L 1337 1280 Q 1334 1278.8 1335 1282.5 L 1330 1290.5 L 1330 1293 Q 1327 1291.8 1328 1295.5 L 1327 1298 Q 1324 1296.8 1325 1300.5 L 1323 1306 Q 1320.3 1304.9 1321 1307.5 L 1320 1311 Q 1317 1309.8 1318 1313.5 L 1313 1321.5 L 1313 1324 Q 1310 1322.8 1311 1326.5 L 1304 1337.5 L 1303 1342 Q 1300.3 1340.9 1301 1343.5 L 1299 1349 Q 1296 1347.8 1297 1351.5 L 1293 1356.5 L 1293 1359 Q 1290.3 1357.9 1291 1360.5 L 1289 1366 Q 1286 1364.8 1287 1368.5 Q 1282.4 1371.8 1282 1378 Q 1279.3 1376.9 1280 1379.5 L 1279 1383 Q 1276.3 1381.9 1277 1384.5 L 1272 1394 Q 1269 1392.8 1270 1396.5 L 1265 1406 Q 1262 1404.8 1263 1408.5 L 1257.5 1417 Q 1254.9 1416.2 1256 1419.5 L 1252 1424.5 L 1252 1427 Q 1249.3 1425.9 1250 1428.5 L 1245 1435.5 L 1245 1438 Q 1242.3 1436.9 1243 1439.5 L 1241 1444 Q 1238 1442.8 1239 1446.5 L 1235 1451.5 L 1235 1454 L 1232 1455.5 L 1231 1459.5 L 1224 1468.5 L 1224 1471 Q 1221.3 1469.9 1222 1472.5 L 1221 1475 Q 1218 1473.8 1219 1477.5 L 1214 1483.5 L 1214 1486 Q 1211.3 1484.9 1212 1487.5 L 1206.5 1496 Q 1203.9 1495.2 1205 1498.5 Q 1200.8 1501.4 1200 1507 Q 1197.3 1505.9 1198 1508.5 L 1193 1517 Q 1190.3 1515.9 1191 1518.5 L 1187 1523.5 L 1187 1526 L 1184 1527.5 L 1180 1536 L 1177 1537.5 L 1176 1542 Q 1173.3 1540.9 1174 1543.5 L 1173 1546 Q 1170.3 1544.9 1171 1547.5 L 1170 1550 L 1167 1551.5 L 1166 1556 Q 1163.3 1554.9 1164 1557.5 L 1163 1560 Q 1160 1558.8 1161 1562.5 L 1159 1566 Q 1156.3 1564.9 1157 1567.5 L 1156 1570 Q 1153.3 1568.9 1154 1571.5 L 1153 1574 Q 1150.3 1572.9 1151 1575.5 L 1149 1580 L 1146 1581.5 Q 1147.1 1584.8 1144.5 1584 L 1139 1591.5 L 1139 1594 L 1136 1595.5 L 1135 1599 Q 1132.3 1597.9 1133 1600.5 L 1124.5 1612 Q 1121.9 1611.2 1123 1614.5 L 1120 1616 L 1117.5 1622 Q 1114.9 1621.2 1116 1624.5 L 1113 1626 Q 1112.4 1631 1108 1633.5 L 1108 1636 Q 1105.3 1634.9 1106 1637.5 L 1102 1640.5 L 1102 1642.5 L 1098 1646.5 L 1098 1649 L 1095 1650.5 L 1094 1654 Q 1091.3 1652.9 1092 1655.5 L 1088 1662 L 1085 1663.5 L 1084 1667 Q 1081.3 1665.9 1082 1668.5 L 1077 1676 Q 1074.3 1674.9 1075 1677.5 L 1074 1680 L 1071 1681.5 L 1064 1693 L 1061 1694.5 L 1060 1698 Q 1057.3 1696.9 1058 1699.5 L 1055 1701 L 1047 1714 Q 1044.3 1712.9 1045 1715.5 L 1035.5 1728 Q 1033.3 1727.3 1034 1729.5 L 1031 1731 L 1029.5 1735 Q 1027.3 1734.3 1028 1736.5 L 1023 1744 L 1020 1745.5 L 1018.5 1749 Q 1016.3 1748.3 1017 1750.5 L 1006 1765 L 1003 1766.5 L 1001.5 1769 Q 998.9 1768.2 1000 1771.5 L 997 1773 L 995 1778 Q 992.3 1776.9 993 1779.5 L 992 1782 L 989 1783.5 Q 989.8 1785.8 987.5 1785 L 984.5 1790 Q 982.3 1789.3 983 1791.5 L 980 1793 L 978 1797.5 L 967.5 1810 L 965 1811.5 L 963.5 1814 Q 960.9 1813.2 962 1816.5 L 959 1818 L 957.5 1821 Q 955.3 1820.3 956 1822.5 L 951 1830 L 948 1831.5 L 946.5 1834 L 945 1834 Q 946.5 1837.8 943.5 1837 L 940.5 1841 Q 938.3 1840.3 939 1842.5 L 930 1854 L 927 1855.5 L 925 1858.5 L 924 1861 L 921 1862.5 L 919.5 1865 Q 917.3 1864.3 918 1866.5 L 909.5 1876 Q 907.3 1875.3 908 1877.5 L 906 1881 Q 903.3 1879.9 904 1882.5 L 900 1888 L 897 1889.5 L 895.5 1892 L 893 1893.5 L 889.5 1899 L 887 1900.5 L 885.5 1903 Q 883.3 1902.3 884 1904.5 L 881 1906 L 869 1922 L 866 1923.5 L 864.5 1926 L 862 1927.5 L 859 1933 L 856 1934.5 Q 856.8 1936.8 854.5 1936 L 851.5 1940 L 849 1941.5 L 847 1944.5 L 842 1951 Q 839.3 1949.9 840 1952.5 L 833 1958 L 824 1970 L 821 1971.5 Q 821.8 1973.8 819.5 1973 L 811 1984 L 808 1985.5 Q 808.8 1987.8 806.5 1987 L 804 1991 L 801 1992.5 Q 801.8 1994.8 799.5 1994 L 796.5 1998 L 794 1999.5 Q 794.8 2001.8 792.5 2001 L 791 2004 L 787 2006.5 Q 787.8 2008.8 785.5 2008 L 784 2011 L 781 2012.5 L 779.5 2015 L 777 2016.5 L 775.5 2019 Q 773.3 2018.3 774 2020.5 L 770 2023.5 L 768.5 2026 Q 766.3 2025.3 767 2027.5 L 764 2029 L 762.5 2032 L 760 2033.5 Q 760.8 2035.8 758.5 2035 L 755.5 2039 L 753 2040.5 Q 753.8 2042.8 751.5 2042 L 750 2045 L 743.5 2048 L 739 2044.5 Q 739.8 2042.3 737.5 2043 L 734.5 2039 L 732 2037.5 Q 732.8 2035.3 730.5 2036 L 729 2033 L 724 2031 L 722.5 2028 Q 720.3 2028.8 721 2026.5 L 717 2024 Q 718.1 2021.3 715.5 2022 L 697.5 2004 L 696 2004 L 694.5 2001 Q 692.3 2001.8 693 1999.5 L 689 1997 L 687.5 1994 Q 685.3 1994.8 686 1992.5 L 679 1987 L 677.5 1984 Q 675.3 1984.8 676 1982.5 L 654.5 1960 L 652 1958.5 L 650.5 1956 Q 648.3 1956.8 649 1954.5 L 645 1951.5 L 643 1947 L 640 1945.5 Q 640.8 1943.3 638.5 1944 L 637 1941 L 633 1938.5 Q 633.8 1936.3 631.5 1937 L 628.5 1933 L 626 1931.5 Q 626.8 1929.3 624.5 1930 L 623 1926 L 620 1924.5 Q 620.8 1922.3 618.5 1923 L 615.5 1919 Q 613.3 1919.8 614 1917.5 L 610 1914.5 L 608.5 1912 Q 606.3 1912.8 607 1910.5 L 599.5 1902 L 597 1900.5 L 595.5 1898 Q 593.3 1898.8 594 1896.5 Q 584.6 1889 579 1879 L 576 1877.5 L 574.5 1875 L 572 1873.5 Q 572.7 1870.9 570 1872 L 570 1869.5 L 566 1866.5 L 564.5 1864 Q 562.3 1864.8 563 1862.5 L 556 1854 L 553 1852.5 L 551 1848 L 548 1846.5 L 546.5 1844 L 545 1844 Q 546.5 1840.3 543.5 1841 L 540.5 1837 Q 538.3 1837.8 539 1835.5 L 535 1830 Q 532.3 1831.1 533 1828.5 L 527 1821 Q 524.3 1822.1 525 1819.5 L 519.5 1813 Q 517.3 1813.8 518 1811.5 L 515 1810 L 513.5 1806 Q 511.3 1806.8 512 1804.5 L 502.5 1793 L 500 1791.5 Q 500.7 1788.9 498 1790 L 498 1787.5 L 494 1784.5 L 492.5 1782 Q 490.3 1782.8 491 1780.5 L 490 1778 Q 487.3 1779.1 488 1776.5 L 486 1773 L 483 1771.5 Q 484.1 1768.2 481.5 1769 L 478.5 1765 Q 476.3 1765.8 477 1763.5 L 472.5 1758 Q 470.3 1758.8 471 1756.5 Q 466.5 1754 466 1749 L 463 1747.5 L 458.5 1741 Q 456.3 1741.8 457 1739.5 L 452 1732 L 449 1730.5 Q 450.1 1727.2 447.5 1728 L 444.5 1724 L 443 1724 Q 444.5 1720.3 441.5 1721 L 436 1714.5 L 435 1711 L 432 1709.5 Q 432.7 1706.9 430 1708 L 430 1705.5 Q 422.3 1699.3 417.5 1690 Q 415.3 1690.8 416 1688.5 L 415 1686 Q 412.3 1687.1 413 1684.5 L 411 1681 Q 408.3 1682.1 409 1679.5 L 408 1677 L 405 1675.5 L 398 1664 L 395 1662.5 L 387 1650 Q 384 1651.3 385 1647.5 L 381 1644.5 L 374 1633 L 371 1631.5 L 369.5 1628 Q 367.3 1628.8 368 1626.5 L 352.5 1605 Q 350.3 1605.8 351 1603.5 L 350 1601 Q 347.3 1602.1 348 1599.5 L 346 1595 L 343 1593.5 L 343 1591 Q 340.3 1592.1 341 1589.5 L 333 1578 Q 330 1579.3 331 1575.5 L 326 1568 Q 323.3 1569.1 324 1566.5 L 319 1558 Q 316.3 1559.1 317 1556.5 L 309 1544 Q 306 1545.3 307 1541.5 L 302 1535.5 L 302 1533 L 299 1531.5 L 292 1521.5 L 292 1519 Q 289.3 1520.1 290 1517.5 L 288 1513 Q 285 1514.3 286 1510.5 L 283 1509 L 283 1506.5 Q 278.8 1503.6 278 1498 Q 275.3 1499.1 276 1496.5 L 270.5 1488 Q 268.3 1488.8 269 1486.5 L 258 1470.5 L 254 1462 Q 251 1463.3 252 1459.5 L 251 1457 Q 248.3 1458.1 249 1455.5 L 247 1451 Q 244 1452.3 245 1448.5 Q 240.8 1445.6 240 1440 Q 237 1441.3 238 1437.5 L 237 1435 Q 234.3 1436.1 235 1433.5 L 230 1424 Q 227 1425.3 228 1421.5 L 227 1419 Q 224.3 1420.1 225 1417.5 L 213 1398.5 L 213 1396 Q 210 1397.3 211 1393.5 L 204 1383.5 L 203 1379 Q 200.3 1380.1 201 1377.5 L 198 1373.5 L 198.5 1372 Q 195.9 1372.8 197 1369.5 Q 193 1367.3 193 1362 Q 190 1363.3 191 1359.5 Q 188.3 1358.4 189 1355 Q 186 1356.3 187 1352.5 L 181 1343.5 L 181.5 1342 Q 178.9 1342.8 180 1339.5 Q 176 1337.3 176 1332 Q 173 1333.3 174 1329.5 L 160 1305.5 L 155 1293 Q 152 1294.3 153 1290.5 L 152 1287 Q 149 1288.3 150 1284.5 Q 147.3 1283.4 148 1280 Q 145 1281.3 146 1277.5 L 145 1274 Q 142 1275.3 143 1271.5 L 138 1262.5 L 138 1260 Q 135 1261.3 136 1257.5 L 131 1248.5 L 131 1246 Q 128 1247.3 129 1243.5 L 128 1240 Q 125 1241.3 126 1237.5 L 125 1233.5 L 122 1230.5 L 121 1225 Q 118 1226.3 119 1222.5 L 108 1200.5 L 104 1188 Q 101 1189.3 102 1185.5 L 99 1179.5 L 99.5 1178 Q 96.9 1178.8 98 1175.5 L 95 1171.5 L 94 1165 Q 91 1166.3 92 1162.5 L 88 1154.5 L 88 1151.5 L 85 1147.5 L 84 1141.5 L 81 1137.5 L 81 1134.5 L 78 1130.5 L 73 1113 Q 69.7 1114.3 71 1109.5 Q 66.7 1104.3 66 1095.5 L 64 1093.5 L 63 1086 Q 59.7 1087.3 61 1082.5 L 58 1076.5 Q 60.5 1075 57 1073.5 L 56 1066 Q 52.7 1067.3 54 1062.5 L 53 1057.5 L 51 1055.5 L 49 1045.5 L 47 1043.5 L 46 1035 Q 42.7 1036.3 44 1031.5 Q 41.1 1027.6 42 1021 Q 38.7 1022.3 40 1017.5 L 37 1011.5 L 36 1002.5 L 34 1000.5 L 32 986 Q 28 987.4 30 980.5 L 29 975 Q 25 976.4 27 969.5 L 25 958 Q 21 959.4 23 952.5 Q 20.8 951.2 22 946.5 L 20 944.5 L 19 932.5 L 16 924.5 L 15 911 Q 11.5 912.1 13 904.5 L 12 903.5 L 12 895 L 10 894.5 L 10 887.5 L 9 886.5 L 8 867 L 6 866.5 L 6 857.5 L 5 856.5 L 5 845.5 L 3 843.5 L 3 832.5 L 2 831.5 L 0 769.5 L 1 769.5 L 3 818.5 L 4 819.5 L 4 829.5 L 6 838.5 L 6 848.5 L 7 849.5 L 7 858.5 L 9 863.5 L 10 878.5 L 12 884.5 L 14 902.5 L 16 907.5 L 17 919.5 L 19 923.5 L 24 951.5 L 26 955.5 L 27 964.5 L 29 968.5 L 31 980.5 L 33 983.5 L 33 987.5 L 37 998.5 L 37 1002.5 Q 40.6 1007.9 41 1016.5 L 43 1019.5 L 48 1039.5 L 64 1083.5 L 65 1089.5 L 89 1151.5 L 91 1153.5 L 92 1158.5 L 116 1212.5 L 153 1287.5 Q 190.4 1358.6 232 1425.5 Q 275.2 1494.8 322 1560.5 L 410 1678.5 L 485 1770.5 L 522 1812.5 L 526 1819 L 529 1820.5 L 533 1827 Q 535.7 1825.9 535 1828.5 Q 590.2 1891.8 649 1951.5 L 649 1953 L 652 1954.5 Q 651.3 1956.8 653.5 1956 L 717.5 2021 L 724 2026.5 Q 723.3 2028.8 725.5 2028 L 744.5 2046 L 795 1996.5 L 835 1954.5 L 835 1953 L 838 1951.5 Q 989.2 1791.2 1122 1612.5 Q 1180.3 1533.8 1234 1450.5 L 1278 1379.5 L 1330 1287.5 L 1367 1214.5 L 1401 1138.5 L 1429 1066.5 L 1429 1063.5 L 1435 1049.5 L 1435 1046.5 L 1439 1037.5 L 1440 1030.5 L 1442 1027.5 L 1453 991.5 L 1470 923.5 L 1470 918.5 L 1473 908.5 L 1474 897.5 L 1476 893.5 L 1476 887.5 L 1478 880.5 L 1478 874.5 L 1480 868.5 L 1481 853.5 L 1483 847.5 L 1484 827.5 L 1485 826.5 L 1486 806.5 L 1487 805.5 L 1487 787.5 L 1488 786.5 L 1488 717.5 L 1487 716.5 L 1487 697.5 L 1486 696.5 L 1486 685.5 L 1484 675.5 L 1483 655.5 L 1481 649.5 L 1480 634.5 L 1477 623.5 L 1477 617.5 L 1473 601.5 L 1473 596.5 L 1470 587.5 L 1470 582.5 L 1467 574.5 L 1467 570.5 Q 1463.4 564.1 1463 554.5 L 1461 551.5 L 1459 540.5 L 1457 537.5 L 1456 530.5 L 1454 527.5 L 1446 500.5 L 1419 434.5 L 1387 373.5 Q 1365.3 336.2 1340 302.5 Q 1298.3 246.7 1247.5 200 Q 1194.6 150.9 1131.5 112 L 1078.5 82 L 1037.5 64 L 1035.5 62 L 1000.5 48 L 965.5 36 L 962.5 36 L 959.5 34 L 938.5 29 L 935.5 27 L 931.5 27 L 923.5 24 L 902.5 20 L 893.5 17 L 882.5 16 L 878.5 14 L 873.5 14 L 866.5 12 L 860.5 12 L 855.5 10 L 840.5 9 L 825.5 6 L 814.5 6 L 805.5 4 L 794.5 4 L 793.5 3 L 775.5 3 L 774.5 2 L 714.5 2 L 713.5 3 L 695.5 3 L 694.5 4 L 683.5 4 L 673.5 6 L 654.5 7 L 648.5 9 L 633.5 10 L 628.5 12 L 610.5 14 L 605.5 16 L 581.5 20 L 516.5 38 L 462.5 58 L 460.5 60 L 446.5 65 L 444.5 67 L 404.5 85 L 344.5 120 Q 289.2 155.7 242 199.5 Q 242.8 201.8 240.5 201 L 214 226.5 L 188 254.5 L 183 262 Q 180.3 260.9 181 263.5 L 176 270 Q 173.3 268.9 174 271.5 L 140 314.5 L 103 371.5 L 78 417.5 L 51 478.5 L 36 521.5 L 36 524.5 L 34 527.5 L 33 534.5 L 30 540.5 L 30 544.5 Q 26.2 550.2 26 559.5 L 24 562.5 L 24 566.5 L 20 579.5 L 20 583.5 L 16 597.5 L 16 602.5 L 13 612.5 L 13 618.5 L 10 629.5 L 9 643.5 L 6 656.5 L 6 667.5 L 4 675.5 L 3 700.5 L 2 701.5 L 2 722.5 L 1 723.5 L 0.5 734 L 0 713.5 L 1 712.5 L 1 690.5 L 2 689.5 L 3 661 L 5 660.5 L 5 650.5 L 6 649.5 L 6 640.5 L 8 638.5 L 10 615.5 L 12 613.5 L 13 599 Q 17 600.4 15 593.5 L 16 592.5 L 16 586 L 18 585.5 L 17 582.5 L 19 579.5 L 20 568.5 L 22 566.5 L 23 557.5 L 25 555.5 L 27 542 Q 31 543.4 29 536.5 L 30 532 Q 33.3 533.3 32 528.5 L 34 519.5 L 36 517.5 L 37 510.5 L 39 508.5 L 40 501 Q 43 502.3 42 498.5 L 44 490 Q 47.3 491.3 46 486.5 L 47 483 Q 50.7 484.4 49 478.5 L 53 470.5 L 54 464 Q 57 465.3 56 461.5 L 57 457 Q 60 458.3 59 454.5 L 64 442 Q 67 443.3 66 439.5 L 71 426 Q 74 427.3 73 423.5 L 75 418 Q 78 419.3 77 415.5 L 78 412 Q 81 413.3 80 409.5 L 81 406 Q 84 407.3 83 403.5 L 88 393.5 L 91 390.5 L 95 380 Q 97.7 381.1 97 378.5 L 98 375 Q 101 376.3 100 372.5 Q 102.8 371.4 102 368 Q 105 369.3 104 365.5 L 109 357 Q 112 358.3 111 354.5 L 115 349.5 L 115 347 Q 117.7 348.1 117 345.5 L 119 341 Q 122 342.3 121 338.5 Q 127.5 333.7 129 326 Q 131.7 327.1 131 324.5 L 136.5 316 Q 138.8 316.8 138 314.5 L 143 308.5 L 143 306 Q 145.7 307.1 145 304.5 L 153 293 Q 156 294.3 155 290.5 L 158 289 L 163 280 L 167 277.5 L 170.5 272 Q 172.8 272.8 172 270.5 Q 180 263.9 184 255 L 187 253.5 Q 186.3 251.3 188.5 252 L 194.5 244 Q 196.8 244.8 196 242.5 L 199 241 L 201.5 237 Q 203.8 237.8 203 235.5 L 206 234 L 208 229 L 211 227.5 L 216.5 221 Q 218.8 221.8 218 219.5 L 222 216.5 Q 221.3 214.3 223.5 215 L 225 212 L 229 209.5 Q 228.3 207.3 230.5 208 L 232 205 L 237 203 L 238.5 200 Q 240.8 200.8 240 198.5 L 244 195.5 L 245.5 193 Q 248.8 194.1 248 191.5 L 252 188.5 Q 251.3 186.3 253.5 187 L 255 184 L 264 179 L 265.5 176 L 268.5 174 L 272 171.5 Q 271.3 169.3 273.5 170 L 275 167 L 277.5 167 L 284 161.5 Q 283.3 159.3 285.5 160 L 288 159 Q 286.9 156.3 289.5 157 L 293 154.5 Q 292.3 152.3 294.5 153 L 297 152 Q 295.9 149.3 298.5 150 L 306 144.5 Q 305.2 141.9 308.5 143 L 316 137.5 Q 315.2 134.9 318.5 136 L 326 130.5 Q 325.2 127.9 328.5 129 L 331 128 Q 329.9 125.3 332.5 126 L 346 118 Q 344.9 115.3 347.5 116 L 352 114 Q 350.8 111 354.5 112 L 357 111 Q 355.8 108 359.5 109 L 364 107 Q 362.8 104 366.5 105 L 369 104 Q 367.9 101.3 370.5 102 L 374 101 Q 372.9 98.3 375.5 99 L 381 97 Q 379.8 94 383.5 95 Q 387.6 90.6 394 90 Q 392.8 87 396.5 88 L 399 87 Q 397.8 84 401.5 85 L 413 80 Q 411.8 77 415.5 78 L 419 77 Q 417.8 74 421.5 75 L 428 73 Q 426.8 70 430.5 71 L 443.5 64 L 449 63 Q 447.8 60 451.5 61 L 459.5 57 L 466 56 Q 464.8 53 468.5 54 L 473 53 Q 471.8 50 475.5 51 L 482.5 49 L 484.5 47 L 492 46 Q 490.7 42.7 495.5 44 L 503.5 40 L 511 39 Q 509.6 35.3 515.5 37 L 521 36 Q 519.7 32.7 524.5 34 L 534 32 Q 532.6 28.3 538.5 30 L 544 29 Q 542.6 25.3 548.5 27 L 559 25 Q 557.6 21 564.5 23 L 571 22 Q 569.6 18 576.5 20 L 584.5 17 L 602 15 L 602.5 13 L 609.5 13 L 610.5 12 L 618 12 L 618.5 10 L 625.5 10 L 626.5 9 L 644 8 L 644.5 6 L 655.5 6 L 656.5 5 L 667 5 L 667.5 3 L 681.5 3 L 682.5 2 L 733.5 1 L 734.5 0 Z " /><path fill="rgb(255,255,255)" stroke="rgb(255,255,255)" stroke-width="1" opacity="0.4980392156862745" d="M 727.5 433 L 770.5 434 L 771.5 435 L 782.5 435 L 794.5 438 L 800.5 438 L 830.5 445 L 862.5 456 Q 928.6 483.4 974 531.5 Q 973.3 533.8 975.5 533 L 985 545 Q 987.7 543.9 987 546.5 Q 1024 587.5 1045 644.5 L 1055 676.5 L 1062 712.5 L 1063 735.5 L 1064 736.5 L 1064 775.5 L 1063 776.5 L 1062 799.5 L 1059 811.5 L 1058 822.5 L 1056 826.5 L 1055 835.5 Q 1051.4 840.9 1051 849.5 L 1041 877.5 Q 1018.6 931.1 982.5 971 Q 980.3 970.3 981 972.5 L 957.5 996 L 956 996 Q 957.1 998.7 954.5 998 L 927.5 1020 L 904.5 1035 L 877.5 1049 L 853.5 1059 L 847.5 1060 L 845.5 1062 L 817.5 1070 L 812.5 1070 L 808.5 1072 L 797.5 1074 L 791.5 1074 L 786.5 1076 L 765.5 1077 L 764.5 1078 L 749.5 1078 L 748.5 1079 L 725.5 1079 L 724.5 1078 L 695.5 1076 L 660.5 1069 L 631.5 1059 L 628.5 1059 L 602.5 1048 Q 545.8 1020.2 505 976.5 Q 483.3 953.2 466 925.5 Q 450.6 899.9 439 870.5 L 428 836.5 L 427 827.5 L 424 818.5 L 424 812.5 L 422 807.5 L 421 792.5 L 420 791.5 L 420 779.5 L 418 771.5 L 418 740.5 L 420 732.5 L 421 710.5 L 428 675.5 L 439 641.5 L 451 613.5 Q 479.1 557.1 523.5 517 Q 564.7 479.2 620.5 456 L 648.5 446 L 659.5 444 L 663.5 442 L 672.5 441 L 676.5 439 L 688.5 438 L 700.5 435 L 726.5 434 L 727.5 433 Z M 723 435 L 722 436 L 707 436 L 706 438 L 695 438 L 686 440 Q 678 438 679 442 L 673 442 L 672 443 Q 665 441 666 445 L 656 446 L 654 448 L 645 450 Q 641 449 642 452 L 637 453 Q 632 452 633 455 L 626 456 L 618 460 Q 614 459 615 462 Q 607 462 603 467 Q 599 466 600 469 L 597 470 Q 593 469 594 472 L 592 472 L 584 477 Q 580 476 581 479 Q 575 479 572 484 Q 568 483 569 486 L 561 491 Q 558 490 559 493 L 557 493 L 555 496 L 551 498 Q 548 497 549 500 L 547 501 Q 544 500 545 503 L 538 508 Q 535 507 536 510 L 534 511 L 532 514 L 528 515 L 527 518 Q 524 517 525 520 L 523 521 L 521 524 L 518 526 Q 519 528 517 527 L 514 531 L 511 533 Q 512 535 510 534 L 508 537 L 506 538 L 504 541 L 501 542 L 490 557 Q 491 559 489 558 L 486 562 Q 487 564 484 563 L 479 572 Q 480 574 477 573 L 476 576 Q 477 578 474 577 L 473 582 L 470 583 Q 470 588 466 591 Q 467 594 464 593 L 462 598 Q 463 601 460 600 L 460 603 L 455 612 Q 456 614 453 613 L 448 627 Q 449 629 446 628 L 445 633 Q 446 636 443 635 L 443 640 L 438 652 Q 439 656 436 655 L 435 663 L 433 665 L 431 674 Q 433 680 429 679 L 428 691 L 426 693 L 425 706 L 424 707 L 424 716 L 422 718 L 422 730 L 421 731 L 421 782 L 422 783 L 422 795 L 424 797 L 426 820 L 428 822 L 429 833 L 431 835 Q 430 841 433 844 Q 431 850 435 849 L 436 854 Q 435 858 438 857 L 439 862 Q 437 867 441 866 L 443 876 L 453 896 Q 452 899 455 898 Q 455 905 460 910 Q 459 913 462 912 L 463 916 Q 466 917 464 919 L 466 919 L 466 922 L 474 933 L 474 935 L 477 937 Q 476 940 479 939 L 481 945 L 484 947 Q 483 950 486 949 L 495 963 L 498 965 Q 497 967 500 966 L 504 972 Q 503 974 506 973 L 507 976 L 510 977 L 513 981 Q 515 980 514 983 L 517 984 L 519 987 Q 521 986 520 989 L 524 991 L 526 994 Q 529 993 528 996 L 531 997 L 532 1000 L 547 1011 Q 549 1010 548 1013 L 552 1014 L 553 1017 L 557 1018 Q 559 1017 558 1020 L 567 1025 Q 569 1024 568 1027 Q 574 1027 578 1032 Q 581 1031 580 1034 L 591 1039 Q 593 1038 592 1041 L 598 1042 L 605 1046 Q 608 1045 607 1048 L 611 1049 Q 614 1048 613 1051 L 620 1052 L 628 1056 Q 632 1055 631 1058 L 635 1059 Q 640 1057 639 1061 L 648 1063 Q 653 1061 652 1065 L 658 1066 Q 664 1064 663 1068 L 681 1070 L 683 1072 Q 688 1071 690 1073 L 699 1073 L 699 1075 L 711 1075 L 712 1076 L 737 1076 L 737 1078 Q 743 1080 745 1076 L 768 1076 L 769 1075 L 782 1075 L 782 1073 L 800 1072 L 802 1070 L 814 1069 L 815 1068 Q 820 1070 819 1066 L 826 1065 Q 831 1067 830 1063 L 840 1062 L 849 1058 Q 853 1059 852 1056 Q 861 1056 867 1051 Q 870 1052 869 1049 L 874 1048 Q 877 1049 876 1046 L 883 1044 Q 885 1045 884 1042 L 888 1041 Q 891 1042 890 1039 L 893 1039 L 901 1034 Q 904 1035 903 1032 L 913 1027 Q 915 1028 914 1025 L 917 1025 L 928 1017 Q 930 1018 929 1015 L 937 1011 L 938 1008 L 941 1007 Q 943 1008 942 1005 L 949 1001 L 950 998 L 955 996 Q 954 993 957 994 L 958 992 L 965 987 L 968 983 Q 970 984 969 982 L 972 980 L 973 977 L 976 976 Q 975 972 978 973 L 981 969 Q 983 970 982 968 L 985 966 L 990 959 Q 989 956 992 957 L 993 954 L 996 952 L 997 950 Q 996 947 999 948 L 1003 941 L 1006 939 L 1006 937 L 1011 931 Q 1010 927 1013 928 L 1013 926 L 1021 914 Q 1020 910 1023 911 L 1025 906 Q 1024 903 1027 904 L 1028 901 Q 1027 897 1030 898 L 1031 893 L 1035 886 Q 1034 882 1037 883 L 1038 877 L 1044 865 L 1045 858 L 1047 856 L 1049 845 L 1051 843 L 1052 838 Q 1050 831 1054 832 L 1055 821 L 1057 819 L 1058 805 L 1059 804 L 1059 795 L 1061 794 L 1061 780 L 1062 779 L 1062 734 L 1061 733 L 1061 718 L 1059 717 L 1059 708 L 1057 699 Q 1059 691 1055 692 L 1055 686 L 1054 685 Q 1056 678 1052 679 L 1051 670 L 1049 668 L 1047 659 Q 1048 654 1045 655 L 1044 648 L 1042 646 Q 1041 637 1037 633 Q 1038 628 1035 629 L 1033 623 Q 1034 619 1031 620 L 1030 617 Q 1031 613 1028 614 L 1028 612 L 1023 603 Q 1024 599 1021 600 L 1017 591 L 1006 575 Q 1007 572 1004 573 L 1004 571 Q 1000 568 999 563 L 996 562 Q 997 558 995 559 L 990 553 L 987 551 L 979 540 L 975 537 Q 976 534 974 535 L 971 531 Q 968 532 969 530 L 967 528 L 964 524 Q 961 525 962 523 L 960 521 L 958 518 L 952 514 L 950 511 L 948 510 Q 945 511 946 509 L 942 507 L 940 503 Q 937 504 938 501 L 936 500 Q 933 501 934 498 L 930 496 Q 927 497 928 494 L 926 493 Q 923 494 924 491 L 916 486 Q 913 487 914 484 L 910 483 L 907 480 L 903 479 L 892 472 Q 888 473 889 470 L 886 469 Q 882 470 883 467 L 880 466 Q 876 467 877 464 L 871 462 Q 867 463 868 460 L 862 459 L 854 455 Q 849 456 850 453 L 846 452 Q 840 454 841 450 L 830 448 L 828 446 L 823 445 Q 816 447 817 443 L 811 442 Q 803 444 804 440 L 788 439 L 787 438 L 778 438 L 777 436 L 763 436 L 762 435 L 723 435 Z " /><path fill="rgb(0,0,0)" stroke="rgb(0,0,0)" stroke-width="1" opacity="0" d="M 0 0 L 734 0.5 L 701.5 1 L 700.5 2 L 667 3 L 666.5 5 L 656.5 5 L 655.5 6 L 644 6 L 643.5 8 L 635.5 8 L 634.5 9 L 618 10 L 617.5 12 L 610.5 12 L 609.5 13 L 602 13 Q 603.4 17 596.5 15 L 595.5 16 L 584.5 17 L 581.5 19 L 571 20 Q 572.4 24 565.5 22 L 559 23 Q 560.4 26.7 554.5 25 L 544 27 Q 545.4 30.7 539.5 29 L 534 30 Q 535.3 33.3 530.5 32 L 521 34 Q 522.4 37.7 516.5 36 L 511 37 Q 512.3 40 508.5 39 L 503.5 40 L 499.5 43 L 492 44 Q 493.3 47.3 488.5 46 L 479.5 50 L 473 51 Q 474.3 54.3 469.5 53 L 466 54 Q 467.3 57 463.5 56 L 455.5 60 L 449 61 Q 450.3 64 446.5 63 L 428 71 Q 429.3 74 425.5 73 L 419 75 Q 420.3 78 416.5 77 L 413 78 Q 414.1 80.7 411.5 80 L 404.5 84 L 399 85 Q 400.1 87.7 397.5 87 L 394 88 Q 395.1 90.7 392.5 90 L 383.5 95 L 381 95 Q 382.1 97.7 379.5 97 L 374 99 Q 375.3 102 371.5 101 L 369 102 Q 370.1 104.7 367.5 104 L 364 105 Q 365.1 107.7 362.5 107 L 357 109 Q 358.1 111.7 355.5 111 L 352 112 Q 353.1 114.7 350.5 114 L 346 116 Q 347.1 118.7 344.5 118 L 331 126 Q 332.1 128.7 329.5 128 L 326 129 L 324.5 132 L 318.5 136 L 316 136 L 314.5 139 L 308.5 143 L 306 143 L 304.5 146 L 297 150 Q 298.1 152.7 295.5 152 L 293 153 L 291.5 156 L 288 157 Q 289.1 159.7 286.5 159 L 284 160 L 282.5 163 L 277.5 167 L 275 167 L 273.5 170 Q 271.3 169.3 272 171.5 L 267 174 Q 268.1 176.7 265.5 176 L 264 179 L 255 184 L 253.5 187 Q 251.3 186.3 252 188.5 L 248 191.5 Q 248.8 194.1 245.5 193 L 242.5 197 L 240 198.5 Q 240.8 200.8 238.5 200 L 237 203 L 232 205 L 230.5 208 Q 228.3 207.3 229 209.5 L 225 212 L 223.5 215 Q 221.3 214.3 222 216.5 L 218 219.5 Q 218.8 221.8 216.5 221 L 209.5 229 Q 207.3 228.3 208 230.5 L 206 234 L 203 235.5 Q 203.8 237.8 201.5 237 L 199 241 L 196 242.5 Q 196.8 244.8 194.5 244 L 188.5 252 Q 186.3 251.3 187 253.5 L 184 255 Q 180.6 263.1 173 268.5 L 172 272 L 169 273.5 L 164.5 280 Q 162.3 279.3 163 281.5 L 158 289 L 155 290.5 L 155 293 Q 152.3 291.9 153 294.5 L 145 306 Q 142 304.8 143 308.5 Q 138.6 310.9 138 316 L 135 317.5 L 131 326 Q 128.3 324.9 129 327.5 L 121 338.5 L 121 341 Q 118.3 339.9 119 342.5 L 117 347 Q 114 345.8 115 349.5 Q 111 351.8 111 357 Q 108.3 355.9 109 358.5 L 104 365.5 L 104 368 Q 101 366.8 102 370.5 Q 99.3 371.6 100 375 Q 97 373.8 98 377.5 L 97 380 Q 94.3 378.9 95 381.5 L 83 403.5 L 83 406 Q 80 404.8 81 408.5 L 80 412 Q 77 410.8 78 414.5 L 77 418 Q 74.3 416.9 75 419.5 L 73 426 Q 70 424.8 71 428.5 L 67 435.5 L 66 442 Q 63.3 440.9 64 443.5 Q 59.7 448.8 59 457 Q 55.7 455.7 57 460.5 L 56 464 Q 52.7 462.7 54 467.5 L 49 478.5 L 49 483 Q 46 481.8 47 485.5 L 46 490 Q 42.7 488.7 44 493.5 L 42 501 Q 38.7 499.7 40 504.5 L 37 510.5 L 36 517.5 L 33 522.5 L 32 532 Q 28.7 530.7 30 535.5 L 29 542 Q 25.7 540.7 27 545.5 L 25 555.5 L 23 557.5 L 22 566.5 L 20 568.5 L 19 579.5 L 17 584.5 L 17.5 586 Q 14.5 585.5 16 592.5 L 15 599 Q 11.5 597.9 13 605.5 Q 10.2 607.3 12 613.5 L 10 615.5 L 8 638.5 L 6 640.5 L 5 661 L 3 661.5 L 3 673.5 L 2 674.5 L 0.5 713 L 0 0 Z " /><path fill="rgb(0,0,0)" stroke="rgb(0,0,0)" stroke-width="1" opacity="0" d="M 756.5 0 L 1490 0 L 1490 735.5 L 1489 735.5 L 1489 702.5 L 1488 701.5 L 1487 669 L 1485 668.5 L 1485 656.5 L 1484 655.5 L 1484 646.5 L 1482 644.5 L 1480 620.5 L 1478 618.5 L 1477 604.5 L 1475 602.5 L 1474 590 L 1472 589.5 L 1473 586.5 L 1471 583.5 L 1470 572 Q 1466 573.4 1468 566.5 L 1467 561.5 L 1465 559.5 L 1463 545 Q 1459.7 546.3 1461 541.5 L 1460 535 Q 1456.7 536.3 1458 531.5 L 1456 523.5 L 1454 521.5 L 1453 513.5 L 1448 503.5 L 1446 493.5 L 1444 491.5 L 1443 485.5 L 1437 473.5 L 1436 467 Q 1433 468.3 1434 464.5 L 1433 460 L 1431 459.5 Q 1433.5 458 1430 456.5 L 1429 450 Q 1426 451.3 1427 447.5 L 1419 431.5 L 1419 428 Q 1416.3 429.1 1417 426.5 L 1413 419.5 L 1412 414 Q 1409.3 415.1 1410 412.5 L 1405 401 Q 1402 402.3 1403 398.5 L 1402 395 Q 1399 396.3 1400 392.5 L 1398 388 Q 1395 389.3 1396 385.5 L 1395 382 Q 1392 383.3 1393 379.5 Q 1388.4 376.2 1388 370 Q 1385.3 371.1 1386 368.5 L 1385 365 Q 1382 366.3 1383 362.5 L 1370.5 343 Q 1367.9 343.8 1369 340.5 L 1368 338 Q 1365.3 339.1 1366 336.5 L 1358 325.5 L 1358 323 Q 1355.3 324.1 1356 321.5 Q 1353.3 320.4 1354 317 L 1351 315.5 L 1351 313 Q 1348.3 314.1 1349 311.5 L 1341 300 L 1338 298.5 L 1336.5 295 Q 1334.3 295.8 1335 293.5 L 1334 290 L 1331 288.5 L 1330 285 Q 1327.3 286.1 1328 283.5 L 1325 282 L 1320 273 L 1317 271.5 Q 1318.1 268.2 1315.5 269 L 1312.5 265 Q 1310.3 265.8 1311 263.5 L 1301.5 252 Q 1299.3 252.8 1300 250.5 L 1296 245 L 1293 243.5 Q 1293.8 241.3 1291.5 242 L 1288.5 238 L 1286 236.5 L 1284.5 234 Q 1282.3 234.8 1283 232.5 L 1282 230 L 1280 230 Q 1281.1 227.3 1278.5 228 L 1275.5 224 Q 1273.3 224.8 1274 222.5 L 1270 219.5 L 1268.5 217 Q 1266.3 217.8 1267 215.5 L 1263 212.5 Q 1263.8 210.3 1261.5 211 L 1260 208 L 1256 207 L 1254.5 204 L 1252 202.5 L 1250.5 200 L 1247.5 198 L 1245 194 L 1238 190 L 1236.5 187 L 1233 186 L 1231.5 183 L 1228.5 181 L 1225 179 Q 1226.1 176.3 1223.5 177 L 1222 174 L 1218.5 173 L 1205 161.5 Q 1205.8 159.3 1203.5 160 L 1201 159 Q 1202.1 156.3 1199.5 157 L 1195 155 L 1193.5 152 Q 1190.9 152.7 1192 150 L 1189.5 150 Q 1187.1 145.6 1182 145 Q 1183.1 142.3 1180.5 143 L 1178 142 Q 1179.1 139.3 1176.5 140 L 1168 135 Q 1169.1 132.3 1166.5 133 L 1158 128 Q 1159.1 125.3 1156.5 126 L 1147 121 Q 1148.1 118.3 1145.5 119 L 1143 118 Q 1144.1 115.3 1141.5 116 L 1120 104 Q 1121.3 101 1117.5 102 Q 1114.2 97.4 1108 97 Q 1109.3 94 1105.5 95 L 1102 94 Q 1103.1 91.3 1100.5 92 L 1095 90 Q 1096.3 87 1092.5 88 L 1089 87 Q 1090.1 84.3 1087.5 85 L 1076 80 Q 1077.3 77 1073.5 78 L 1060.5 71 L 1055 70 Q 1056.3 67 1052.5 68 L 1045.5 64 L 1040 63 Q 1041.3 59.7 1036.5 61 L 1029.5 57 L 1023 56 Q 1024.3 52.7 1019.5 54 Q 1013.9 49.4 1005 49 Q 1006.3 45.7 1001.5 47 L 997 46 Q 998.3 42.7 993.5 44 L 986.5 42 L 984.5 40 L 977 39 Q 978.4 35.3 972.5 37 L 968 36 Q 969.3 32.7 964.5 34 L 955 32 Q 956.4 28 949.5 30 L 945 29 Q 946.4 25 939.5 27 L 930.5 25 L 928.5 23 L 918 22 Q 919.4 18 912.5 20 L 898.5 16 L 886 15 L 885.5 13 L 878.5 13 L 877.5 12 L 871 12 L 870.5 10 L 862.5 10 L 853.5 8 L 845.5 8 L 843.5 6 L 821 5 L 820.5 3 L 807.5 3 L 806.5 2 L 789.5 2 L 788.5 1 L 756.5 1 L 756.5 0 Z " /><path fill="rgb(0,0,0)" stroke="rgb(0,0,0)" stroke-width="1" opacity="0" d="M 722.5 435 L 761.5 435 L 762.5 436 L 777 436 L 777.5 438 L 786.5 438 L 787.5 439 L 804 440 Q 802.9 443.5 810.5 442 L 817 443 Q 815.6 447 822.5 445 L 827.5 446 L 829.5 448 L 841 450 Q 839.6 453.7 845.5 452 L 850 453 Q 848.7 456.3 853.5 455 L 861.5 459 L 868 460 Q 866.8 463 870.5 462 L 877 464 Q 875.8 467 879.5 466 L 883 467 Q 881.8 470 885.5 469 L 889 470 Q 887.8 473 891.5 472 L 902.5 479 L 906.5 480 L 909.5 483 L 914 484 Q 912.9 486.7 915.5 486 L 924 491 Q 922.9 493.7 925.5 493 L 928 494 Q 926.9 496.7 929.5 496 L 934 498 Q 932.9 500.7 935.5 500 L 938 501 Q 936.9 503.7 939.5 503 L 942 507 L 946 508.5 Q 945.3 510.8 947.5 510 L 950 511 L 951.5 514 L 958 518 L 959.5 521 L 962 522.5 Q 961.3 524.8 963.5 524 L 966.5 528 L 969 529.5 Q 968.3 531.8 970.5 531 L 973.5 535 Q 975.8 534.3 975 536.5 L 979 539.5 L 987 551 L 990 552.5 L 994.5 559 Q 997.1 558.2 996 561.5 L 999 563 Q 999.5 568 1004 570.5 L 1004 573 Q 1006.7 571.9 1006 574.5 L 1017 590.5 L 1021 600 Q 1024 598.8 1023 602.5 L 1028 611.5 L 1028 614 Q 1031 612.8 1030 616.5 L 1031 620 Q 1034 618.8 1033 622.5 L 1035 629 Q 1038.3 627.7 1037 632.5 Q 1041.1 637.4 1042 645.5 L 1044 647.5 L 1045 655 Q 1048.3 653.7 1047 658.5 L 1049 667.5 L 1051 669.5 L 1052 679 Q 1056 677.6 1054 684.5 L 1055 685.5 L 1055 692 Q 1058.5 690.9 1057 698.5 L 1059 707.5 L 1059 717 L 1061 717.5 L 1061 732.5 L 1062 733.5 L 1062 778.5 L 1061 779.5 L 1061 794 L 1059 794.5 L 1059 803.5 L 1058 804.5 L 1057 818.5 L 1055 820.5 L 1054 832 Q 1050 830.6 1052 837.5 L 1051 842.5 L 1049 844.5 L 1047 855.5 L 1045 857.5 L 1044 864.5 L 1038 876.5 L 1037 883 Q 1034 881.8 1035 885.5 L 1031 892.5 L 1030 898 Q 1027 896.8 1028 900.5 L 1027 904 Q 1024.3 902.9 1025 905.5 L 1023 911 Q 1020 909.8 1021 913.5 L 1013 925.5 L 1013 928 Q 1010 926.8 1011 930.5 L 1006 936.5 L 1006 939 L 1003 940.5 L 999 948 Q 996.3 946.9 997 949.5 L 996 952 L 993 953.5 L 991.5 957 Q 989.3 956.3 990 958.5 L 985 966 L 982 967.5 Q 982.8 969.8 980.5 969 L 977.5 973 Q 974.9 972.2 976 975.5 L 973 977 L 971.5 980 L 969 981.5 Q 969.8 983.8 967.5 983 L 964.5 987 L 958 991.5 L 956.5 994 Q 954.3 993.3 955 995.5 L 950 998 L 948.5 1001 L 942 1005 Q 943.1 1007.7 940.5 1007 L 938 1008 L 936.5 1011 L 929 1015 Q 930.1 1017.7 927.5 1017 L 916.5 1025 L 914 1025 Q 915.1 1027.7 912.5 1027 L 903 1032 Q 904.3 1035 900.5 1034 L 892.5 1039 L 890 1039 Q 891.3 1042 887.5 1041 L 884 1042 Q 885.1 1044.7 882.5 1044 L 876 1046 Q 877.3 1049 873.5 1048 L 869 1049 Q 870.3 1052 866.5 1051 Q 860.7 1055.6 852 1056 Q 853.3 1059.3 848.5 1058 L 839.5 1062 L 830 1063 Q 831.4 1066.7 825.5 1065 L 819 1066 Q 820.4 1069.7 814.5 1068 L 813.5 1069 L 801.5 1070 L 799.5 1072 L 782 1073 L 781.5 1075 L 768.5 1075 L 767.5 1076 L 744.5 1076 Q 742.8 1079.5 737 1078 L 736.5 1076 L 711.5 1076 L 710.5 1075 L 699 1075 L 698.5 1073 L 689.5 1073 Q 688 1070.5 682.5 1072 L 680.5 1070 L 663 1068 Q 664.4 1064 657.5 1066 L 652 1065 Q 653.4 1061.3 647.5 1063 L 639 1061 Q 640.4 1057.3 634.5 1059 L 631 1058 Q 632.3 1054.7 627.5 1056 L 619.5 1052 L 613 1051 Q 614.3 1048 610.5 1049 L 607 1048 Q 608.3 1045 604.5 1046 L 597.5 1042 L 592 1041 Q 593.1 1038.3 590.5 1039 L 580 1034 Q 581.3 1031 577.5 1032 Q 574.2 1027.4 568 1027 Q 569.1 1024.3 566.5 1025 L 558 1019.5 Q 558.8 1017.3 556.5 1018 L 553 1017 L 551.5 1014 L 548 1012.5 Q 548.8 1010.3 546.5 1011 L 532 1000 L 530.5 997 L 528 995.5 Q 528.8 992.9 525.5 994 L 524 991 L 520 988.5 Q 520.8 986.3 518.5 987 L 517 984 L 514 982.5 Q 514.8 980.3 512.5 981 L 510 977 L 507 975.5 L 505.5 973 Q 503.3 973.8 504 971.5 L 499.5 966 Q 497.3 966.8 498 964.5 L 495 963 L 485.5 949 Q 482.9 949.8 484 946.5 L 481 945 L 479 939 Q 476 940.3 477 936.5 L 474 935 L 474 932.5 L 466 921.5 L 466 919 L 464 918.5 Q 466.5 917 463 915.5 L 462 912 Q 459 913.3 460 909.5 Q 455.3 905.3 455 898 Q 452 899.3 453 895.5 L 443 875.5 L 441 866 Q 437.3 867.4 439 861.5 L 438 857 Q 434.7 858.3 436 853.5 L 435 849 Q 431 850.4 433 843.5 Q 430.4 840.6 431 834.5 L 429 832.5 L 428 821.5 L 426 819.5 L 424 796.5 L 422 794.5 L 422 782.5 L 421 781.5 L 421 730.5 L 422 729.5 L 422 717.5 L 424 715.5 L 424 706.5 L 425 705.5 L 426 692.5 L 428 690.5 L 429 679 Q 433 680.4 431 673.5 L 433 664.5 L 435 662.5 L 436 655 Q 439.3 656.3 438 651.5 L 443 639.5 L 443 635 Q 446 636.3 445 632.5 L 446 628 Q 448.7 629.1 448 626.5 L 453 613 Q 455.7 614.1 455 611.5 L 460 602.5 L 460 600 Q 463 601.3 462 597.5 L 464 593 Q 467 594.3 466 590.5 Q 470 588.3 470 583 L 473 581.5 L 474 577 Q 476.7 578.1 476 575.5 L 477 573 Q 479.7 574.1 479 571.5 L 484 563 Q 486.7 564.1 486 561.5 L 488.5 558 Q 490.8 558.8 490 556.5 L 501 542 L 504 540.5 L 505.5 538 L 508 536.5 L 509.5 534 Q 511.8 534.8 511 532.5 L 514 531 L 516.5 527 Q 518.8 527.8 518 525.5 L 521 524 L 522.5 521 L 525 519.5 Q 524.3 517.3 526.5 518 L 528 515 L 532 514 L 533.5 511 L 536 509.5 Q 535.3 507.3 537.5 508 L 545 503 Q 543.9 500.3 546.5 501 L 549 500 Q 547.9 497.3 550.5 498 L 555 496 L 556.5 493 L 559 493 Q 557.9 490.3 560.5 491 L 569 486 Q 567.8 483 571.5 484 Q 574.8 479.4 581 479 Q 579.8 476 583.5 477 L 591.5 472 L 594 472 Q 592.8 469 596.5 470 L 600 469 Q 598.8 466 602.5 467 Q 606.8 462 615 462 Q 613.8 459 617.5 460 L 625.5 456 L 633 455 Q 631.7 451.7 636.5 453 L 642 452 Q 640.8 449 644.5 450 L 653.5 448 L 655.5 446 L 666 445 Q 664.6 441 671.5 443 L 672.5 442 L 679 442 Q 677.9 438.5 685.5 440 L 694.5 438 L 706 438 L 706.5 436 L 721.5 436 L 722.5 435 Z " /><path fill="rgb(0,0,0)" stroke="rgb(0,0,0)" stroke-width="1" opacity="0" d="M 1489.5 765 L 1490 2048 L 746 2047.5 L 750 2045 L 751.5 2042 Q 753.8 2042.8 753 2040.5 L 757 2037.5 L 758.5 2035 Q 760.8 2035.8 760 2033.5 L 764 2030.5 Q 763.3 2028.3 765.5 2029 L 767 2026 L 770 2024.5 L 771.5 2022 L 774 2020.5 Q 773.3 2018.3 775.5 2019 L 778.5 2015 L 781 2013.5 L 782.5 2011 Q 784.8 2011.8 784 2009.5 L 787 2008 L 789.5 2004 Q 791.8 2004.8 791 2002.5 L 794 2001 L 795.5 1998 L 798 1996.5 L 799.5 1994 Q 801.8 1994.8 801 1992.5 L 804 1991 L 806.5 1987 Q 808.8 1987.8 808 1985.5 L 811 1984 L 819.5 1973 Q 821.8 1973.8 821 1971.5 L 824 1970 L 833 1958 L 840 1952.5 L 842 1949.5 L 847 1943 Q 849.7 1944.1 849 1941.5 L 853 1938.5 L 854.5 1936 Q 856.8 1936.8 856 1934.5 L 859 1933 L 863.5 1926 L 866 1924.5 L 867.5 1922 Q 869.8 1922.8 869 1920.5 Q 877.3 1914.7 881 1906 L 884 1904.5 Q 883.3 1902.3 885.5 1903 L 888.5 1899 L 891 1897.5 L 894.5 1892 L 897 1890.5 L 898.5 1888 Q 900.8 1888.8 900 1886.5 L 904 1881 Q 906.7 1882.1 906 1879.5 L 908 1876 L 915 1870.5 L 918 1865 L 921 1863.5 L 922.5 1861 Q 924.8 1861.8 924 1859.5 L 925 1857 Q 927.7 1858.1 927 1855.5 L 930 1854 L 939 1841 L 942 1839.5 L 943.5 1837 L 945 1837 Q 943.5 1833.3 946.5 1834 L 949.5 1830 Q 951.8 1830.8 951 1828.5 L 956 1821 L 959 1819.5 Q 958.3 1817.3 960.5 1818 L 962 1814 L 965 1812.5 L 966.5 1810 L 969 1808.5 L 980 1793 L 983 1791.5 Q 982.3 1789.3 984.5 1790 L 987.5 1785 Q 989.8 1785.8 989 1783.5 L 992 1782 L 993 1778 Q 995.7 1779.1 995 1776.5 L 997 1773 L 1000 1771.5 Q 998.9 1768.2 1001.5 1769 L 1004.5 1765 Q 1006.8 1765.8 1006 1763.5 L 1017 1749 L 1020 1747.5 L 1021.5 1744 Q 1023.8 1744.8 1023 1742.5 L 1028 1735 L 1031 1733.5 Q 1029.9 1730.2 1032.5 1731 L 1034 1728 L 1037 1726.5 L 1045 1714 Q 1047.7 1715.1 1047 1712.5 L 1054 1704.5 L 1055 1701 L 1058 1699.5 L 1060 1696.5 L 1062.5 1693 Q 1064.8 1693.8 1064 1691.5 L 1072.5 1680 Q 1074.8 1680.8 1074 1678.5 L 1075 1676 Q 1077.7 1677.1 1077 1674.5 L 1082 1667 Q 1084.7 1668.1 1084 1665.5 L 1086.5 1662 Q 1088.8 1662.8 1088 1660.5 L 1092 1654 Q 1094.7 1655.1 1094 1652.5 L 1096.5 1649 Q 1099.1 1649.8 1098 1646.5 L 1103.5 1639 L 1106 1637.5 Q 1105.3 1634.9 1108 1636 L 1108 1633.5 Q 1112.5 1631 1113 1626 L 1116 1624.5 Q 1114.9 1621.2 1117.5 1622 L 1120 1616 L 1123 1614.5 Q 1121.9 1611.2 1124.5 1612 L 1132 1602.5 L 1133 1599 Q 1135.7 1600.1 1135 1597.5 L 1137.5 1594 Q 1140.1 1594.8 1139 1591.5 L 1144.5 1584 Q 1147.1 1584.8 1146 1581.5 L 1149 1580 L 1151 1574 Q 1153.7 1575.1 1153 1572.5 L 1154 1570 Q 1156.7 1571.1 1156 1568.5 L 1157 1566 Q 1159.7 1567.1 1159 1564.5 Q 1161.8 1563.4 1161 1560 Q 1163.7 1561.1 1163 1558.5 L 1164 1556 Q 1166.7 1557.1 1166 1554.5 L 1168.5 1550 Q 1170.8 1550.8 1170 1548.5 L 1171 1546 Q 1173.7 1547.1 1173 1544.5 L 1174 1542 Q 1176.7 1543.1 1176 1540.5 L 1178.5 1536 Q 1180.8 1536.8 1180 1534.5 L 1185.5 1526 Q 1188.1 1526.8 1187 1523.5 L 1191 1517 Q 1193.7 1518.1 1193 1515.5 L 1198 1507 Q 1200.7 1508.1 1200 1505.5 L 1205 1498.5 L 1205 1496 L 1208 1494.5 L 1212 1486 Q 1215 1487.3 1214 1483.5 L 1219 1477.5 L 1219 1475 Q 1221.7 1476.1 1221 1473.5 L 1222 1471 Q 1225 1472.3 1224 1468.5 L 1233.5 1454 Q 1236.1 1454.8 1235 1451.5 Q 1239 1449.3 1239 1444 Q 1241.7 1445.1 1241 1442.5 L 1243 1438 Q 1246 1439.3 1245 1435.5 Q 1249.3 1432.6 1250 1427 Q 1253 1428.3 1252 1424.5 Q 1256 1422.3 1256 1417 L 1259 1415.5 L 1263 1406 Q 1265.7 1407.1 1265 1404.5 L 1270 1396.5 L 1270 1394 Q 1272.7 1395.1 1272 1392.5 L 1277 1383 Q 1280 1384.3 1279 1380.5 L 1280 1378 Q 1283 1379.3 1282 1375.5 Q 1286.6 1372.2 1287 1366 Q 1290 1367.3 1289 1363.5 L 1291 1359 Q 1294 1360.3 1293 1356.5 Q 1297 1354.3 1297 1349 Q 1300 1350.3 1299 1346.5 L 1301 1342 Q 1304 1343.3 1303 1339.5 L 1310 1328.5 L 1311 1324 Q 1314 1325.3 1313 1321.5 Q 1317.9 1318.1 1318 1311 Q 1321 1312.3 1320 1308.5 L 1321 1306 Q 1323.7 1307.1 1323 1304.5 L 1325 1298 Q 1327.7 1299.1 1327 1296.5 L 1328 1293 Q 1331 1294.3 1330 1290.5 L 1335 1282.5 L 1335 1280 Q 1338 1281.3 1337 1277.5 L 1338 1274 Q 1341 1275.3 1340 1271.5 L 1351 1251.5 L 1352 1247 Q 1355 1248.3 1354 1244.5 L 1364 1225.5 L 1366 1218 Q 1369 1219.3 1368 1215.5 L 1369 1212 Q 1372 1213.3 1371 1209.5 L 1382 1187.5 L 1386 1175 Q 1389 1176.3 1388 1172.5 L 1389 1168 Q 1392 1169.3 1391 1165.5 L 1399 1149.5 L 1400 1143 Q 1403 1144.3 1402 1140.5 L 1403 1136 Q 1406 1137.3 1405 1133.5 L 1407 1126 Q 1410.3 1127.3 1409 1122.5 L 1415 1110.5 L 1417 1100 Q 1420 1101.3 1419 1097.5 L 1420 1093 Q 1423.3 1094.3 1422 1089.5 L 1424 1082 Q 1427.3 1083.3 1426 1078.5 L 1427 1074 Q 1430.3 1075.3 1429 1070.5 L 1432 1063.5 L 1431.5 1062 Q 1434.5 1062.9 1433 1058.5 L 1434 1054 Q 1437.3 1055.3 1436 1050.5 L 1439 1044.5 L 1441 1033.5 L 1443 1031.5 L 1444 1024 Q 1447.3 1025.3 1446 1020.5 Q 1448.9 1016.6 1448 1010 Q 1451.3 1011.3 1450 1006.5 L 1451 1001 Q 1454.7 1002.4 1453 996.5 L 1456 989.5 L 1458 976 Q 1462 977.4 1460 970.5 L 1461 965.5 L 1463 963.5 L 1465 948 Q 1469 949.4 1467 942.5 Q 1469.2 941.2 1468 936.5 L 1470 934.5 L 1471 922.5 L 1473 920.5 L 1475 901 Q 1478.5 902.1 1477 894.5 Q 1479.8 892.7 1478 886.5 L 1480 884.5 L 1482 859.5 L 1484 857.5 L 1485 835.5 L 1487 833.5 L 1488 801.5 L 1489 800.5 L 1489.5 765 Z " /><path fill="rgb(0,0,0)" stroke="rgb(0,0,0)" stroke-width="1" opacity="0" d="M 0.5 792 L 2 831.5 L 3 832.5 L 3 843.5 L 5 845.5 L 6 867 L 8 867.5 L 8 876.5 L 9 877.5 L 10 895 L 12 895.5 L 12 903.5 L 13 904.5 L 13 911 Q 16.5 909.9 15 917.5 L 16 918.5 L 17 929.5 L 19 932.5 L 20 944.5 L 22 946.5 L 23 958 Q 26.7 956.6 25 962.5 L 27 975 Q 30.7 973.6 29 979.5 L 30 986 Q 34 984.6 32 991.5 L 34 1000.5 L 36 1002.5 L 37 1011.5 L 39 1013.5 L 40 1021 Q 44 1019.6 42 1026.5 L 44 1035 Q 47.7 1033.7 46 1039.5 L 50 1048.5 L 51 1055.5 L 53 1057.5 L 54 1066 Q 57 1064.8 56 1068.5 L 57 1073.5 L 59 1075.5 Q 56.5 1077 60 1078.5 L 61 1086 Q 64.3 1084.7 63 1089.5 L 66 1095.5 L 68 1104.5 L 70 1106.5 L 71 1113 Q 74 1111.8 73 1115.5 L 75 1122.5 L 77 1124.5 L 78 1130.5 L 84 1141.5 L 85 1147.5 L 91 1158.5 L 92 1165 Q 95 1163.8 94 1167.5 L 98 1178 L 100 1178.5 Q 97.5 1180 101 1181.5 L 102 1188 Q 105 1186.8 104 1190.5 L 112 1206.5 L 112 1209.5 L 118 1219.5 L 119 1225 Q 122 1223.8 121 1227.5 L 125 1233.5 L 126 1240 Q 129 1238.8 128 1242.5 L 129 1246 Q 132 1244.8 131 1248.5 L 135 1254.5 L 136 1260 Q 139 1258.8 138 1262.5 Q 142.4 1266.7 143 1274 Q 146 1272.8 145 1276.5 L 146 1280 Q 149 1278.8 148 1282.5 Q 150.8 1283.6 150 1287 Q 153 1285.8 152 1289.5 L 153 1293 Q 156 1291.8 155 1295.5 L 172 1325.5 L 174 1332 Q 177 1330.8 176 1334.5 L 180 1339.5 L 180 1342 L 182 1342.5 Q 179.5 1344 183 1345.5 L 187 1355 Q 190 1353.8 189 1357.5 Q 191.7 1358.6 191 1362 Q 194 1360.8 193 1364.5 L 197 1369.5 L 197 1372 L 199 1372.5 Q 196.5 1374 200 1375.5 L 201 1379 Q 204 1377.8 203 1381.5 L 211 1393.5 L 211 1396 Q 214 1394.8 213 1398.5 L 224 1414.5 L 225 1419 Q 227.7 1417.9 227 1420.5 L 228 1424 Q 230.7 1422.9 230 1425.5 L 235 1435 Q 237.7 1433.9 237 1436.5 L 238 1440 Q 240.7 1438.9 240 1441.5 L 245 1448.5 L 245 1451 Q 247.7 1449.9 247 1452.5 L 249 1457 Q 251.7 1455.9 251 1458.5 L 252 1462 Q 254.7 1460.9 254 1463.5 L 265 1479.5 L 269 1488 L 272 1489.5 L 276 1498 Q 278.7 1496.9 278 1499.5 L 283 1506.5 L 283 1509 L 286 1510.5 L 286 1513 Q 288.7 1511.9 288 1514.5 L 290 1519 Q 293 1517.8 292 1521.5 L 300.5 1533 Q 303.1 1532.2 302 1535.5 L 307 1541.5 L 307 1544 Q 309.7 1542.9 309 1545.5 Q 315.5 1550.3 317 1558 Q 319.7 1556.9 319 1559.5 L 324 1568 Q 326.7 1566.9 326 1569.5 L 331 1575.5 L 331 1578 Q 333.7 1576.9 333 1579.5 L 341 1591 Q 344 1589.8 343 1593.5 L 346 1595 L 348 1601 Q 350.7 1599.9 350 1602.5 L 351 1605 L 354 1606.5 L 354 1608.5 Q 362.7 1617 368 1628 L 371 1629.5 L 372.5 1633 Q 374.8 1632.3 374 1634.5 L 382.5 1646 L 385 1647.5 L 385 1650 Q 387.7 1648.9 387 1651.5 L 396.5 1664 Q 398.8 1663.3 398 1665.5 L 406.5 1677 Q 408.8 1676.3 408 1678.5 L 409 1681 Q 411.7 1679.9 411 1682.5 L 413 1686 Q 415.7 1684.9 415 1687.5 L 416 1690 L 419 1691.5 Q 422.8 1700.2 430 1705.5 L 430 1708 Q 432.7 1706.9 432 1709.5 L 435 1711 L 436 1714.5 L 441.5 1721 L 443 1721 Q 441.5 1724.7 444.5 1724 L 447.5 1728 Q 450.1 1727.2 449 1730.5 L 452 1732 L 457 1741 L 460 1742.5 L 464.5 1749 Q 466.8 1748.3 466 1750.5 L 471 1758 L 474 1759.5 L 477 1765 L 480 1766.5 L 481.5 1769 Q 484.1 1768.2 483 1771.5 L 486 1773 L 488 1778 Q 490.7 1776.9 490 1779.5 L 491 1782 L 494 1783.5 L 495.5 1786 L 498 1787.5 L 498 1790 Q 500.7 1788.9 500 1791.5 L 504 1794.5 L 512 1806 L 515 1807.5 Q 513.9 1810.8 516.5 1810 L 518 1813 L 521 1814.5 L 525 1821 Q 527.7 1819.9 527 1822.5 L 533 1830 Q 535.7 1828.9 535 1831.5 L 539 1837 L 542 1838.5 L 543.5 1841 L 545 1841 Q 543.5 1844.8 546.5 1844 L 549.5 1848 Q 551.8 1847.3 551 1849.5 L 554.5 1854 Q 556.8 1853.3 556 1855.5 L 563 1864 L 566 1865.5 L 567.5 1868 L 570 1869.5 L 570 1872 Q 572.7 1870.9 572 1873.5 L 576 1876.5 L 577.5 1879 Q 579.8 1878.3 579 1880.5 L 594 1896.5 L 594 1898 L 597 1899.5 L 598.5 1902 L 601 1903.5 L 607 1912 L 610 1913.5 L 611.5 1916 L 614 1917.5 Q 613.3 1919.8 615.5 1919 L 618.5 1923 Q 620.8 1922.3 620 1924.5 L 623 1926 L 624.5 1930 Q 626.8 1929.3 626 1931.5 L 630 1934.5 L 631.5 1937 Q 633.8 1936.3 633 1938.5 L 637 1941 L 638.5 1944 Q 640.8 1943.3 640 1945.5 L 643 1947 L 646.5 1953 L 649 1954.5 Q 648.3 1956.8 650.5 1956 L 653.5 1960 L 656 1961.5 L 676 1982.5 L 676 1984 L 679 1985.5 Q 678.3 1987.8 680.5 1987 L 686 1994 L 689 1995.5 Q 688.3 1997.8 690.5 1997 L 693 2001 L 696 2002.5 Q 695.3 2004.8 697.5 2004 L 715.5 2022 L 717 2022 Q 715.9 2024.7 718.5 2024 L 721 2028 L 724 2029.5 Q 723.3 2031.8 725.5 2031 L 729 2033 L 730.5 2036 Q 732.8 2035.3 732 2037.5 L 736 2040.5 L 737.5 2043 Q 739.8 2042.3 739 2044.5 L 743 2047.5 L 0 2048 L 0.5 792 Z " /><path fill="rgb(255,255,255)" stroke="rgb(255,255,255)" stroke-width="1" opacity="1" d="M 714.5 2 L 774.5 2 L 775.5 3 L 793.5 3 L 794.5 4 L 805.5 4 L 814.5 6 L 834.5 7 L 840.5 9 L 855.5 10 L 860.5 12 L 878.5 14 L 882.5 16 L 893.5 17 Q 900.9 20.7 911.5 21 L 915.5 23 L 919.5 23 Q 925.9 26.6 935.5 27 L 938.5 29 L 949.5 31 L 952.5 33 L 959.5 34 L 962.5 36 L 965.5 36 L 1000.5 48 L 1035.5 62 L 1037.5 64 L 1078.5 82 L 1087.5 88 L 1102.5 95 Q 1137.5 114.5 1169.5 137 Q 1236.4 184.1 1291 243.5 Q 1339.5 296 1378 358.5 L 1394 385.5 L 1419 434.5 L 1446 500.5 L 1446 503.5 L 1456 530.5 L 1457 537.5 L 1459 540.5 L 1461 551.5 L 1463 554.5 L 1463 558.5 L 1470 582.5 L 1471 592.5 L 1473 596.5 L 1473 601.5 L 1477 617.5 L 1477 623.5 L 1480 634.5 L 1481 649.5 L 1483 655.5 L 1485 684.5 L 1486 685.5 L 1486 696.5 L 1487 697.5 L 1487 716.5 L 1488 717.5 L 1488 786.5 L 1487 787.5 L 1487 805.5 L 1486 806.5 L 1486 818.5 L 1484 827.5 L 1483 847.5 L 1481 853.5 L 1481 861.5 L 1478 874.5 L 1476 893.5 L 1474 897.5 L 1470 923.5 L 1467 932.5 L 1462 957.5 L 1460 961.5 L 1459 969.5 L 1450 998.5 L 1449 1005.5 L 1447 1008.5 L 1446 1015.5 L 1440 1030.5 L 1439 1037.5 L 1412 1111.5 L 1381 1184.5 L 1340 1268.5 L 1312 1320.5 Q 1269.7 1396.2 1223 1467.5 Q 1163.2 1558.7 1098 1644.5 Q 974.8 1806.3 836.5 1953 Q 834.3 1952.3 835 1954.5 L 746.5 2045 L 744.5 2046 L 725.5 2028 L 724 2028 L 718.5 2021 L 656 1959.5 L 653.5 1956 Q 651.3 1956.8 652 1954.5 L 649 1953 L 649 1951.5 L 567 1864.5 L 535 1828.5 L 535 1827 Q 532.3 1828.1 533 1825.5 L 527.5 1819 Q 525.3 1819.8 526 1817.5 Q 401.7 1677.3 294 1520.5 L 242 1441.5 L 209 1387.5 Q 164.6 1313.4 126 1233.5 L 95 1165.5 L 79 1126.5 L 77 1118.5 L 75 1116.5 L 48 1039.5 L 47 1032.5 L 44 1026.5 L 43 1019.5 L 41 1016.5 Q 40.6 1007.9 37 1002.5 L 37 998.5 L 34 991.5 L 33 983.5 L 31 980.5 L 31 976.5 L 27 964.5 L 26 955.5 L 24 951.5 Q 23.7 940.9 20 933.5 L 19 923.5 L 17 919.5 L 16 907.5 L 14 902.5 L 13 890.5 L 10 878.5 L 9 863.5 L 7 858.5 L 6 838.5 L 5 837.5 L 4 819.5 L 3 818.5 L 1 769.5 L 0 768.5 L 0 734.5 L 1 733.5 L 1 723.5 L 2 722.5 L 2 701.5 L 3 700.5 L 4 675.5 L 6 667.5 L 6 656.5 L 9 643.5 L 10 629.5 L 13 618.5 L 13 612.5 L 16 602.5 L 16 597.5 L 20 583.5 L 20 579.5 L 24 566.5 L 24 562.5 L 26 559.5 Q 26.2 550.2 30 544.5 L 30 540.5 L 33 534.5 L 34 527.5 L 36 524.5 L 44 497.5 L 47 492.5 L 48 486.5 L 78 417.5 L 103 371.5 L 140 314.5 L 174 270 Q 176.7 271.1 176 268.5 L 181 262 Q 183.7 263.1 183 260.5 L 218.5 222 L 240.5 201 L 242 201 L 243.5 198 Q 290.2 155.2 344.5 120 L 404.5 85 L 444.5 67 L 446.5 65 L 460.5 60 L 462.5 58 L 516.5 38 L 581.5 20 L 605.5 16 L 610.5 14 L 628.5 12 L 633.5 10 L 648.5 9 L 654.5 7 L 673.5 6 L 683.5 4 L 694.5 4 L 695.5 3 L 713.5 3 L 714.5 2 Z M 728 433 L 727 434 L 701 435 L 689 438 L 677 439 L 673 441 L 664 442 L 660 444 L 649 446 L 621 456 Q 565 479 524 517 Q 479 557 451 614 L 439 642 L 428 676 L 421 711 L 420 733 L 418 741 L 418 772 L 420 780 L 420 792 L 421 793 L 422 808 L 424 813 L 424 819 L 427 828 L 428 837 L 439 871 Q 451 900 466 926 Q 483 953 505 977 Q 546 1020 603 1048 L 629 1059 L 632 1059 L 661 1069 L 696 1076 L 725 1078 L 726 1079 L 749 1079 L 750 1078 L 765 1078 L 766 1077 L 787 1076 L 792 1074 L 798 1074 L 809 1072 L 813 1070 L 818 1070 L 846 1062 L 848 1060 L 854 1059 L 878 1049 L 905 1035 L 928 1020 L 955 998 Q 957 999 956 996 L 958 996 L 981 973 Q 980 970 983 971 Q 1019 931 1041 878 L 1051 850 Q 1051 841 1055 836 L 1056 827 L 1058 823 L 1059 812 L 1062 800 L 1063 777 L 1064 776 L 1064 737 L 1063 736 L 1062 713 L 1055 677 L 1045 645 Q 1024 588 987 547 Q 988 544 985 545 L 976 533 Q 973 534 974 532 Q 929 483 863 456 L 831 445 L 801 438 L 795 438 L 783 435 L 772 435 L 771 434 L 728 433 Z " /></svg>